# xmcd CD database file
#
# Track frame offsets:
#	150
#	77051
#	106803
#	137169
#	152640
#	167394
#	188000
#	195459
#	215567
#
# Disc length: 3166 seconds
#
# Revision: 0
# Processed by: cddbd v1.5.2PL0 Copyright (c) Steve Scherf et al.
# Submitted via: CDex 1.51
#
DISCID=6c0c5c09
DTITLE=PHILIP CLEMO - The Rooms
DYEAR=2008
DGENRE=Jazz
TTITLE0=The Place
TTITLE1=Dream of Shattered Mirrors
TTITLE2=The Shifting Patterns of Sunlight
TTITLE3=A Hand Replaces the Face
TTITLE4=Leaving Corridor Red
TTITLE5=The Humming Top (Dancing Through the Wreckage)
TTITLE6=A Choice of Doorways
TTITLE7=Shadows Draining from the Walls
TTITLE8=Taking a Hand (In the Company of Angels)
EXTD=YEAR: 2008
EXTT0=
EXTT1=
EXTT2=
EXTT3=
EXTT4=
EXTT5=
EXTT6=
EXTT7=
EXTT8=
PLAYORDER=
